# xmcd
#
# Track frame offsets: 
#        150
#        12828
#        32657
#        52386
#        71312
#        88963
#        104725
#        118711
#        133470
#        149823
#        162706
#        179394
#        195026
#        209420
#        221947
#        255140
#        268400
#
# Disc length: 3781 seconds
#
# Revision: 0
# Processed by: cddbd v1.5.2PL0 Copyright (c) Steve Scherf et al.
# Submitted via: ExactAudioCopy v1.0b3
#
DISCID=170ec311
DTITLE=Mix - Grootste Country Saamdans Treffers Vol 1
DYEAR=1900
DGENRE=Country
TTITLE0=The Bellamy Brothers - Let Your Love Flow
TTITLE1=Clive Bruce - One Last Kiss
TTITLE2=Nikky Lalo - How Do I Live
TTITLE3=Jolly Cowboys - Boot Scootin Medley - Grandma's Featherbed - M
TTITLE3=acarena - Cotton Eye Joe
TTITLE4=Bonnie Tyler - Lost In France
TTITLE5=Benson Brothers - My Maria
TTITLE6=Don Kelly and Vangie Coker - Could I Have This Kiss
TTITLE7=Smokie - I'll Meet You At Midnight
TTITLE8=Foster and Allen - Maggie
TTITLE9=Engelbert Humperdinck - Release Me
TTITLE10=Alan Wilson - Livin' On Love
TTITLE11=The Bellamy Brothers - Cowboy Beat
TTITLE12=Don Kelly - I Like It I Love It
TTITLE13=Billy Forrest - Wings Of A Dove
TTITLE14=Boogie Woogie Singers - Country Medley - Adios Amigo - Are Yo
TTITLE14=u Lonesome Tonight - Patches - Medals For Mothers
TTITLE15=Amanda Lee - This Kiss
TTITLE16=Kurt Darren - So Help Me Girl
EXTD=
EXTT0=
EXTT1=
EXTT2=
EXTT3=
EXTT4=
EXTT5=
EXTT6=
EXTT7=
EXTT8=
EXTT9=
EXTT10=
EXTT11=
EXTT12=
EXTT13=
EXTT14=
EXTT15=
EXTT16=
PLAYORDER=
